<svg xmlns="http://www.w3.org/2000/svg" width="581.834" height="756.36" viewBox="0 0 153.944 200.12"><g stroke="#fff" font-weight="400" font-size="10.583" font-family="Cambria" letter-spacing="0" word-spacing="0" fill="none" stroke-width=".178"><g style="line-height:1.25;-inkscape-font-specification:Cambria"><path style="-inkscape-font-specification:'Corbel, Bold';font-variant-ligatures:normal;font-variant-caps:normal;font-variant-numeric:normal;font-feature-settings:normal;text-align:start" d="M82.222 101.539q8.965 13.032 12.57 18.67h.462q4.991-7.764 12.478-18.578l17.653-25.51h26.064l-43.07 60.817 44.919 62.85h-25.695l-19.317-27.635q-7.117-10.167-13.124-19.225h-.37q-6.285 9.427-13.125 19.225L62.35 199.788H36.656l44.919-62.85-43.07-60.816h26.064z" font-weight="700" font-size="50.8" font-family="Corbel" aria-label="X" stroke-width=".663"/></g><g style="line-height:1.25;-inkscape-font-specification:Cambria"><path style="-inkscape-font-specification:'Corbel, Bold';font-variant-ligatures:normal;font-variant-caps:normal;font-variant-numeric:normal;font-feature-settings:normal;text-align:start" d="M91.834 37.488q0 12.94-7.209 21.997-7.117 8.965-22.09 13.31v.37l36.786 50.834H72.147L38.504 76.122H22.977v47.877H.332V.332H37.95q9.335 0 17.376 1.11 8.041 1.016 13.771 3.142 10.907 4.16 16.822 12.385 5.915 8.134 5.915 20.519zM34.16 57.174q7.764 0 13.125-.647 5.453-.739 9.15-2.125 6.84-2.588 9.427-7.025 2.68-4.529 2.68-10.351 0-4.992-2.125-8.781-2.033-3.882-7.024-6.1-3.235-1.479-8.134-2.126-4.898-.74-12.108-.74H22.977v37.895z" font-weight="700" font-size="50.8" font-family="Corbel" aria-label="R" stroke-width=".663"/></g></g></svg>