<?xml version="1.0" encoding="UTF-8" standalone="no"?>
<svg
   xmlns:dc="http://purl.org/dc/elements/1.1/"
   xmlns:cc="http://creativecommons.org/ns#"
   xmlns:rdf="http://www.w3.org/1999/02/22-rdf-syntax-ns#"
   xmlns:svg="http://www.w3.org/2000/svg"
   xmlns="http://www.w3.org/2000/svg"
   id="svg884"
   version="1.1"
   viewBox="0 0 210 297"
   height="297mm"
   width="210mm">
  <defs
     id="defs878" />
  <metadata
     id="metadata881">
    <rdf:RDF>
      <cc:Work
         rdf:about="">
        <dc:format>image/svg+xml</dc:format>
        <dc:type
           rdf:resource="http://purl.org/dc/dcmitype/StillImage" />
        <dc:title></dc:title>
      </cc:Work>
    </rdf:RDF>
  </metadata>
  <g
     id="layer1">
    <path
       id="path896"
       d="M 35.52976,53.205356 V 160.17262 h 23.434524 v -52.53869 l 35.000226,60.62216 -32.739329,56.70619 h 22.685533 l 31.736866,-54.96987 31.88352,55.22388 h 15.75461 l -33.34519,-57.75557 33.02721,-57.2048 H 141.74107 L 114.77742,156.95834 85.910168,106.9588 c 0,0 18.411262,-13.687969 17.655302,-30.318921 C 102.80952,60.008928 97.13988,58.874998 93.360117,55.473213 89.580356,52.071428 78.241072,47.535713 68.791666,48.291665 59.34226,49.047619 59.34226,43.755952 35.52976,53.205356 Z"
       style="fill:none;stroke:#000000;stroke-width:0.26458332px;stroke-linecap:butt;stroke-linejoin:miter;stroke-opacity:1" />
    <path
       id="path898"
       d="m 57.452381,68.70238 v 22.300596 c 0,0 21.843023,3.12606 21.843023,-12.611076 0,-15.737139 -22.598977,-10.067496 -21.843023,-9.68952 z"
       style="fill:none;stroke:#000000;stroke-width:0.26458332px;stroke-linecap:butt;stroke-linejoin:miter;stroke-opacity:1" />
  </g>
</svg>
